<svg id="Layer_1" data-name="Layer 1" xmlns="http://www.w3.org/2000/svg" viewBox="0 0 1080 1080"><defs><style>.cls-1{fill:#1a1a1a;}.cls-2{fill:#1c6d7e;}</style></defs><path class="cls-1" d="M449.82,535.83,598.17,764.06a27.39,27.39,0,0,1-23,42.31H469.63a27.37,27.37,0,0,1-23.32-13L310,571.9Z"/><path class="cls-1" d="M562.54,648.31,613.91,724a27.39,27.39,0,0,0,46.74-2.33l95.78-176.83-153.3-9L560.7,620.68A27.38,27.38,0,0,0,562.54,648.31Z"/><path class="cls-2" d="M926.38,584.63,576.58,287.08a56.45,56.45,0,0,0-73.16,0L153.62,584.63c-22,18.74-3,54.3,24.81,46.37L540,528,901.57,631C929.4,638.93,948.41,603.37,926.38,584.63Z"/></svg>